<svg width="400" height="400" viewBox="0 0 400 400" fill="none" xmlns="http://www.w3.org/2000/svg">
<path d="M0 0H400V400H0V0Z" fill="#1A1A1A"/>
<path d="M230.452 111.819L220.344 273.099L170.247 275.296L170.686 190.262L148.054 258.816H128.718L111.36 197.513L111.14 268.704L60.3833 270.242L62.5806 118.411L119.05 116.214L141.462 188.943L171.345 111.819H230.452Z" fill="#A8DADC"/>
<path d="M342.622 113.577C342.183 120.462 341.78 127.273 341.414 134.012C341.047 140.75 340.571 147.562 339.985 154.446L293.403 156.863V170.706H333.833L331.636 204.764L293.184 205.862L293.403 270.901L237.812 272L241.328 113.577H342.622Z" fill="#A8DADC"/>
</svg>
