<!DOCTYPE svg PUBLIC "-//W3C//DTD SVG 1.1//EN" "http://www.w3.org/Graphics/SVG/1.1/DTD/svg11.dtd">
<!-- Uploaded to: SVG Repo, www.svgrepo.com, Transformed by: SVG Repo Mixer Tools -->
<svg width="800px" height="800px" viewBox="0 0 24 24" fill="none" xmlns="http://www.w3.org/2000/svg">
<g id="SVGRepo_bgCarrier" stroke-width="0"/>
<g id="SVGRepo_tracerCarrier" stroke-linecap="round" stroke-linejoin="round"/>
<g id="SVGRepo_iconCarrier"> <path d="M12.765 20.4155C14.8777 22.5282 18.3029 22.5282 20.4155 20.4155C22.5282 18.3029 22.5282 14.8777 20.4155 12.765M12.765 20.4155L20.4155 12.765M12.765 20.4155L8.17476 15.8252M3.58447 11.235C1.47184 9.12233 1.47184 5.69709 3.58447 3.58447C5.69709 1.47184 9.12233 1.47184 11.235 3.58447M3.58447 11.235L11.235 3.58447M3.58447 11.235L5 12.6505M20.4155 12.765L19 11.3495M11.235 3.58447L15.8252 8.17476" stroke="#cccccc" stroke-width="1.5" stroke-linecap="round"/> <circle cx="9.17154" cy="12" r="1" transform="rotate(-45 9.17154 12)" fill="#cccccc"/> <circle cx="11.9999" cy="14.8286" r="1" transform="rotate(-45 11.9999 14.8286)" fill="#cccccc"/> <circle cx="11.9999" cy="9.17139" r="1" transform="rotate(-45 11.9999 9.17139)" fill="#cccccc"/> <circle cx="14.8285" cy="12" r="1" transform="rotate(-45 14.8285 12)" fill="#cccccc"/> </g>
</svg>